# xmcd
#
# Track frame offsets: 
#        150
#        33862
#        63802
#        79465
#        93190
#        119432
#        151250
#        162709
#        230262
#        255290
#        264410
#        287225
#        314730
#        334425
#
# Disc length: 4720 seconds
#
# Revision: 4
# Processed by: cddbd v1.5.2PL0 Copyright (c) Steve Scherf et al.
# Submitted via: ExactAudioCopy v1.0b3
#
DISCID=c0126e0e
DTITLE=Various Artist - Svensk jazzhistoria. Vol. 10 - Swedish jazz 1
DTITLE=965-1969 - Watch out!
DYEAR=2005
DGENRE=Jazz
TTITLE0=Enar Jonssons sextett - Vals från Norra Lindome
TTITLE1=GL Unit - Experience X
TTITLE2=Pepps and Blues Quality - Sweet Mary Jane
TTITLE3=Vieux Carré Jazzmen - Dance of the humble bumble bee
TTITLE4=Kustbandet - Georgia on my mind
TTITLE5=Lars Werner och hans vänner - Cirklar och trioler and Ryska snuv
TTITLE5=an
TTITLE6="Ljudakrobaterna" Fehling and Löfman - Sista delen av En sommarg
TTITLE6=rej
TTITLE7=Bernt Rosengren kvartett - Fria improvisationer över Turkiska 
TTITLE7=folkmelodier och avsnitt ur Brotherhood suite
TTITLE8=Leif Strands Kammarkör, Arne Domnérus m fl - Intermezzo
TTITLE9=Lars Gullin solopiano - Decent eyes
TTITLE10=Kurt Järnbergs storband - Gugges blues
TTITLE11=Nannie Porres kvartett - You don't know what love is
TTITLE12=Jan Allan quintet - Odin's eye
TTITLE13=Nils Linderg och Radiojazzgruppen - Watch out
EXTD=YEAR: 1969
EXTT0=
EXTT1=
EXTT2=
EXTT3=
EXTT4=
EXTT5=
EXTT6=
EXTT7=
EXTT8=
EXTT9=
EXTT10=
EXTT11=
EXTT12=
EXTT13=
PLAYORDER=
